<svg id="SvgjsSvg1008" xmlns="http://www.w3.org/2000/svg" version="1.1" xmlns:xlink="http://www.w3.org/1999/xlink" xmlns:svgjs="http://svgjs.com/svgjs" width="15" height="16"><defs id="SvgjsDefs1009"></defs><path id="SvgjsPath1010" d="M277.5 996.999C281.642 996.999 285 1000.36 285 1004.5C285 1008.64 281.642 1012 277.5 1012C273.358 1012 270 1008.64 270 1004.5C270 1000.36 273.358 996.999 277.5 996.999ZM270.789 1004.5C270.789 1008.21 273.794 1011.21 277.5 1011.21C281.206 1011.21 284.21 1008.21 284.21 1004.5C284.21 1000.79 281.20599999999996 997.789 277.5 997.789C273.794 997.789 270.789 1000.79 270.789 1004.5Z " fill="#ffffff" transform="matrix(1,0,0,1,-270,-996)"></path><path id="SvgjsPath1011" d="M278.078 1004.48L279.859 1002.7C280.02299999999997 1002.5400000000001 280.02299999999997 1002.2700000000001 279.859 1002.11C279.695 1001.95 279.429 1001.95 279.265 1002.11L277.485 1003.89L275.70500000000004 1002.11C275.54100000000005 1001.95 275.27500000000003 1001.95 275.11100000000005 1002.11C274.94700000000006 1002.27 274.94700000000006 1002.54 275.11100000000005 1002.7L276.891 1004.48L275.11100000000005 1006.26C274.94700000000006 1006.43 274.94700000000006 1006.6899999999999 275.11100000000005 1006.86C275.27500000000003 1007.02 275.54100000000005 1007.02 275.70500000000004 1006.86L277.485 1005.08L279.265 1006.86C279.429 1007.02 279.695 1007.02 279.859 1006.86C280.02299999999997 1006.69 280.02299999999997 1006.4300000000001 279.859 1006.26Z " fill="#ffffff" transform="matrix(1,0,0,1,-270,-996)"></path></svg>