<svg id="SvgjsSvg1023" xmlns="http://www.w3.org/2000/svg" version="1.1" xmlns:xlink="http://www.w3.org/1999/xlink" xmlns:svgjs="http://svgjs.com/svgjs" width="48" height="59"><defs id="SvgjsDefs1024"></defs><path id="SvgjsPath1025" d="M582.78 916.147L567.1999999999999 890.332L567.1999999999999 878.043C568.598 877.545 569.5999999999999 876.202 569.5999999999999 874.625C569.5999999999999 872.623 567.9879999999999 870.999 565.9999999999999 870.999L553.9999999999999 870.999C552.0119999999998 870.999 550.3999999999999 872.623 550.3999999999999 874.625C550.3999999999999 876.202 551.4019999999998 877.545 552.7999999999998 878.043L552.7999999999998 890.332L537.2199999999998 916.147C536.4449999999998 917.4290000000001 535.9999999999998 918.932 535.9999999999998 920.541C535.9999999999998 925.2120000000001 539.7599999999998 929 544.3989999999998 929L575.6009999999998 929C580.2399999999998 929 583.9999999999998 925.212 583.9999999999998 920.541C583.9999999999998 918.932 583.5549999999997 917.4290000000001 582.7799999999997 916.147ZM554.851 891.587L555.199 891.01L555.199 878.25L564.8009999999999 878.25L564.8009999999999 891.01L565.1489999999999 891.587L575.4079999999999 908.584C574.6179999999999 909.42 573.7219999999999 910.1899999999999 572.723 910.8689999999999C570.674 912.2679999999999 568.675 912.9989999999999 566.703 913.208C562.3399999999999 913.67 558.1089999999999 911.574 553.728 908.491C551.573 906.973 549.274 905.6229999999999 546.894 904.7719999999999ZM554 873.416L566 873.416C566.662 873.416 567.2 873.9570000000001 567.2 874.625C567.2 875.29 566.662 875.832 566 875.832L554 875.832C553.338 875.832 552.8 875.29 552.8 874.625C552.8 873.957 553.338 873.416 554 873.416ZM575.601 926.582L544.399 926.582C541.091 926.582 538.4 923.872 538.4 920.5409999999999C538.4 919.4309999999999 538.6999999999999 918.3459999999999 539.271 917.4019999999999L545.617 906.887C545.913 906.981 546.2099999999999 907.087 546.512 907.204C548.3069999999999 907.9 550.218 908.968 552.353 910.471C556.1959999999999 913.178 561.329 916.206 566.954 915.61C569.387 915.3530000000001 571.781 914.431 574.0699999999999 912.87C575.0189999999999 912.223 575.8939999999999 911.501 576.6919999999999 910.715L580.7299999999999 917.404C581.3 918.346 581.5999999999999 919.431 581.5999999999999 920.5409999999999C581.5999999999999 923.872 578.9089999999999 926.582 575.6009999999999 926.582Z " fill="#ffffff" transform="matrix(1,0,0,1,-536,-870)"></path></svg>