<svg id="SvgjsSvg1026" xmlns="http://www.w3.org/2000/svg" version="1.1" xmlns:xlink="http://www.w3.org/1999/xlink" xmlns:svgjs="http://svgjs.com/svgjs" width="54" height="65"><defs id="SvgjsDefs1027"></defs><path id="SvgjsPath1028" d="M880.818 921.256L871.531 904.824C872.472 904.381 873.0369999999999 903.37 872.9739999999999 902.233L872.2839999999999 896.4179999999999L876.2369999999999 892.2469999999998C877.1159999999999 891.3619999999999 877.1779999999999 889.8449999999998 876.2999999999998 888.7709999999998L872.3469999999999 884.4729999999998L873.1619999999999 878.5959999999999C873.2879999999999 877.3319999999999 872.4089999999999 876.0669999999999 871.1539999999999 875.8149999999999L865.4439999999998 874.6769999999999L862.6829999999999 869.5579999999999C862.1189999999999 868.3569999999999 860.7379999999998 867.8509999999999 859.4829999999998 868.3569999999999L859.4199999999998 868.3569999999999L854.1499999999999 870.8219999999999L849.0039999999999 868.2939999999999C848.4389999999999 867.9779999999998 847.7489999999999 867.9149999999998 847.122 868.1039999999998C846.4939999999999 868.2939999999999 845.992 868.7369999999999 845.678 869.3049999999998L842.855 874.4239999999999L837.145 875.4349999999998C835.827 875.6879999999999 834.948 876.8889999999998 835.074 878.2789999999999L835.764 884.0939999999999L831.811 888.265C830.932 889.15 830.87 890.667 831.748 891.741L835.701 896.039L834.886 901.9159999999999C834.76 903.054 835.4499999999999 904.1279999999999 836.5169999999999 904.5709999999999L827.1679999999999 921.2559999999999C826.9169999999999 921.6349999999999 826.9789999999999 922.1399999999999 827.1679999999999 922.5199999999999C827.4189999999999 922.8989999999999 827.7949999999998 923.1519999999998 828.2339999999999 923.1519999999998L838.2739999999999 923.1519999999998L842.8549999999999 931.1779999999998C843.1059999999999 931.5569999999998 843.4819999999999 931.8099999999997 843.9209999999999 931.8099999999997C844.361 931.8099999999997 844.8 931.5569999999997 844.9879999999999 931.1779999999998L853.9609999999999 915.7569999999997L862.9339999999999 931.3679999999997C863.1849999999998 931.7469999999997 863.5619999999999 931.9999999999997 864.0009999999999 931.9999999999997C864.4399999999998 931.9999999999997 864.8799999999999 931.7469999999996 865.0679999999999 931.3679999999997L869.6479999999999 923.1519999999997L879.6879999999999 923.1519999999997C880.1279999999999 923.1519999999997 880.5669999999999 922.8989999999997 880.7549999999999 922.5199999999998C881.0689999999998 922.1399999999998 881.0689999999998 921.6349999999998 880.8179999999999 921.2559999999997ZM847.624 909.879C847.561 909.879 847.561 909.879 847.561 909.879L844.8000000000001 904.634C844.4230000000001 904.0020000000001 843.796 903.4970000000001 843.0430000000001 903.433L837.2700000000001 902.359L838.0860000000001 896.544C838.2110000000001 895.786 837.9600000000002 894.965 837.4580000000001 894.459L833.5680000000001 890.161L837.5210000000001 885.9899999999999C838.0860000000001 885.4209999999999 838.3370000000001 884.6629999999999 838.2110000000001 883.9039999999999L837.5210000000001 878.1529999999999C837.5210000000001 878.1529999999999 837.5210000000001 878.0899999999999 837.5840000000001 878.0269999999999L843.2940000000001 877.015C843.9840000000002 876.889 844.6740000000001 876.447 845.051 875.752L847.875 870.6329999999999L853.02 873.16C853.71 873.54 854.5889999999999 873.54 855.279 873.16L860.487 870.759C860.55 870.759 860.55 870.759 860.55 870.759L863.3109999999999 876.004C863.6869999999999 876.636 864.3149999999999 877.142 865.0049999999999 877.205L870.7149999999999 878.3430000000001L869.8989999999999 884.157C869.7739999999999 884.916 870.0249999999999 885.7370000000001 870.5269999999999 886.243L874.4799999999999 890.541L870.4639999999999 894.7120000000001C869.8989999999999 895.2810000000001 869.6479999999999 896.0390000000001 869.7739999999999 896.7970000000001L870.4639999999999 902.6120000000002L864.8169999999999 903.5600000000002C864.1269999999998 903.6860000000001 863.4359999999999 904.1280000000002 863.06 904.8240000000002L860.236 909.9430000000002L855.091 907.4150000000002C854.4 907.0360000000002 853.522 907.0360000000002 852.832 907.4150000000002ZM868.958 920.624C868.519 920.624 868.0799999999999 920.876 867.8919999999999 921.256L864.001 928.208L855.153 912.7869999999999C855.091 912.5969999999999 855.028 912.4709999999999 854.902 912.3439999999999L853.522 909.8789999999999L853.961 909.6899999999999L859.107 912.218C859.483 912.408 859.86 912.471 860.236 912.471C861.115 912.471 861.9929999999999 912.028 862.432 911.207L865.256 906.088L869.021 905.3919999999999L877.6179999999999 920.6239999999999ZM843.984 928.018L840.094 921.2560000000001C839.8430000000001 920.8760000000001 839.466 920.6240000000001 839.027 920.6240000000001L830.368 920.6240000000001L839.027 905.2030000000001L842.604 905.835L845.365 910.9540000000001C845.929 912.1550000000001 847.3100000000001 912.6600000000001 848.565 912.1550000000001L848.628 912.1550000000001L851.2 910.9540000000001L852.455 913.166ZM866.511 890.288C866.511 883.336 860.8639999999999 877.647 853.961 877.647C847.059 877.647 841.4110000000001 883.336 841.4110000000001 890.288C841.4110000000001 897.24 847.0590000000001 902.928 853.961 902.928C860.864 902.928 866.511 897.24 866.511 890.288ZM853.961 900.4C848.439 900.4 843.921 895.8489999999999 843.921 890.288C843.921 884.726 848.4390000000001 880.176 853.961 880.176C859.4830000000001 880.176 864.001 884.726 864.001 890.288C864.001 895.849 859.483 900.4 853.961 900.4Z " fill="#ffffff" transform="matrix(1,0,0,1,-827,-867)"></path></svg>