<svg id="SvgjsSvg1020" xmlns="http://www.w3.org/2000/svg" version="1.1" xmlns:xlink="http://www.w3.org/1999/xlink" xmlns:svgjs="http://svgjs.com/svgjs" width="56" height="56"><defs id="SvgjsDefs1021"></defs><path id="SvgjsPath1022" d="M274.501 884.218L278.38399999999996 888.0939999999999C278.56299999999993 888.271 278.804 888.371 279.05499999999995 888.371C279.3059999999999 888.371 279.54799999999994 888.271 279.72499999999997 888.0939999999999C282.72799999999995 885.0989999999999 282.72799999999995 880.223 279.72499999999997 877.228C276.722 874.233 271.837 874.233 268.83599999999996 877.228C268.657 877.406 268.55799999999994 877.645 268.55799999999994 877.8969999999999C268.55799999999994 878.1479999999999 268.6569999999999 878.3889999999999 268.83599999999996 878.5659999999999L273.15999999999997 882.881L271.549 884.4879999999999C267.017 880.435 261.03499999999997 877.9639999999999 254.48399999999998 877.9639999999999C247.93399999999997 877.9639999999999 241.95199999999997 880.435 237.42 884.4879999999999L235.808 882.881L240.132 878.5659999999999C240.311 878.3879999999999 240.41 878.1479999999999 240.41 877.8969999999999C240.41 877.645 240.311 877.4039999999999 240.132 877.228C237.13 874.233 232.246 874.233 229.243 877.228C226.24 880.223 226.24 885.0989999999999 229.243 888.0939999999999C229.421 888.271 229.662 888.371 229.91299999999998 888.371C230.164 888.371 230.40599999999998 888.271 230.58299999999997 888.0939999999999L234.46699999999996 884.218L236.05599999999995 885.804C231.61999999999995 890.399 228.88299999999995 896.64 228.88299999999995 903.5079999999999C228.88299999999995 912.8729999999999 233.96299999999997 921.0719999999999 241.51399999999995 925.5189999999999L238.64299999999994 928.3839999999999C238.27199999999993 928.7539999999999 238.27199999999993 929.3519999999999 238.64299999999994 929.7209999999999C238.82799999999995 929.9059999999998 239.06999999999994 929.9989999999999 239.31299999999993 929.9989999999999C239.55599999999993 929.9989999999999 239.79899999999992 929.906 239.98299999999992 929.7209999999999L243.2549999999999 926.4569999999999C246.6469999999999 928.1169999999998 250.4579999999999 929.0529999999999 254.48399999999992 929.0529999999999C258.5089999999999 929.0529999999999 262.31999999999994 928.1169999999998 265.71199999999993 926.4569999999999L268.9839999999999 929.7209999999999C269.16799999999995 929.9059999999998 269.41099999999994 929.9989999999999 269.65399999999994 929.9989999999999C269.89699999999993 929.9989999999999 270.13899999999995 929.906 270.32399999999996 929.7209999999999C270.69499999999994 929.3519999999999 270.69499999999994 928.7539999999999 270.32399999999996 928.3839999999999L267.453 925.5189999999999C275.00399999999996 921.0719999999999 280.08299999999997 912.8729999999999 280.08299999999997 903.5079999999999C280.08299999999997 896.6399999999999 277.347 890.3989999999999 272.91099999999994 885.804ZM254.484 927.16C241.413 927.16 230.78 916.55 230.78 903.5079999999999C230.78 890.4659999999999 241.413 879.8559999999999 254.484 879.8559999999999C267.55400000000003 879.8559999999999 278.187 890.4659999999999 278.187 903.5079999999999C278.187 916.55 267.555 927.16 254.484 927.16ZM264.913 902.562L258.141 902.562C257.796 901.239 256.75800000000004 900.203 255.43200000000002 899.8580000000001L255.43200000000002 890.263C255.43200000000002 889.74 255.007 889.317 254.484 889.317C253.96 889.317 253.535 889.74 253.535 890.263L253.535 899.8580000000001C251.904 900.2810000000001 250.691 901.749 250.691 903.508C250.691 905.595 252.392 907.292 254.484 907.292C256.245 907.292 257.718 906.082 258.141 904.4540000000001L264.913 904.4540000000001C265.43600000000004 904.4540000000001 265.861 904.0310000000001 265.861 903.508C265.861 902.985 265.437 902.562 264.913 902.562ZM278.383 878.566C280.418 880.596 280.623 883.7710000000001 278.99899999999997 886.033L270.90099999999995 877.952C273.167 876.331 276.34799999999996 876.534 278.383 878.566ZM229.968 886.032C228.344 883.7710000000001 228.54899999999998 880.596 230.583 878.566C232.618 876.5350000000001 235.8 876.332 238.066 877.952ZM254.484 905.4C253.43800000000002 905.4 252.58700000000002 904.552 252.58700000000002 903.5079999999999C252.58700000000002 902.4649999999999 253.43800000000002 901.6159999999999 254.484 901.6159999999999C255.529 901.6159999999999 256.38 902.4649999999999 256.38 903.5079999999999C256.38 904.5519999999999 255.529 905.4 254.484 905.4ZM268.563 888.006L267.893 888.6759999999999C267.522 889.045 267.522 889.6429999999999 267.893 890.0129999999999C268.078 890.1979999999999 268.32099999999997 890.29 268.563 890.29C268.806 890.29 269.049 890.198 269.234 890.0129999999999L269.904 889.3439999999999C270.275 888.9739999999999 270.275 888.376 269.904 888.006C269.533 887.637 268.933 887.637 268.563 888.006ZM269.234 916.774C268.863 916.404 268.26399999999995 916.404 267.893 916.774C267.522 917.143 267.522 917.741 267.893 918.111L268.563 918.78C268.748 918.9649999999999 268.991 919.057 269.234 919.057C269.477 919.057 269.719 918.965 269.904 918.78C270.275 918.41 270.275 917.812 269.904 917.442ZM239.734 916.774L239.06400000000002 917.442C238.693 917.812 238.693 918.41 239.06400000000002 918.78C239.24900000000002 918.9649999999999 239.491 919.057 239.734 919.057C239.977 919.057 240.21900000000002 918.965 240.404 918.78L241.075 918.111C241.445 917.741 241.445 917.143 241.075 916.774C240.70399999999998 916.404 240.105 916.404 239.73399999999998 916.774ZM254.484 884.472C255.007 884.472 255.43200000000002 884.049 255.43200000000002 883.526L255.43200000000002 882.5799999999999C255.43200000000002 882.0559999999999 255.007 881.6339999999999 254.484 881.6339999999999C253.96 881.6339999999999 253.535 882.0559999999999 253.535 882.5799999999999L253.535 883.526C253.535 884.048 253.96 884.472 254.484 884.472ZM254.484 922.316C253.96 922.316 253.535 922.738 253.535 923.2620000000001L253.535 924.2080000000001C253.535 924.7310000000001 253.96 925.1540000000001 254.484 925.1540000000001C255.007 925.1540000000001 255.43200000000002 924.7310000000001 255.43200000000002 924.2080000000001L255.43200000000002 923.2620000000001C255.43200000000002 922.738 255.008 922.316 254.484 922.316ZM274.395 904.34L275.34299999999996 904.34C275.866 904.34 276.29099999999994 903.917 276.29099999999994 903.394C276.29099999999994 902.871 275.86599999999993 902.448 275.34299999999996 902.448L274.395 902.448C273.871 902.448 273.44599999999997 902.871 273.44599999999997 903.394C273.44599999999997 903.917 273.871 904.34 274.395 904.34ZM234.572 902.448L233.624 902.448C233.101 902.448 232.676 902.871 232.676 903.394C232.676 903.917 233.101 904.34 233.624 904.34L234.572 904.34C235.096 904.34 235.52 903.917 235.52 903.394C235.52 902.871 235.097 902.448 234.572 902.448ZM240.404 888.006C240.034 887.637 239.434 887.637 239.064 888.006C238.69299999999998 888.376 238.69299999999998 888.9739999999999 239.064 889.3439999999999L239.73399999999998 890.0129999999999C239.91899999999998 890.1979999999999 240.16199999999998 890.29 240.40399999999997 890.29C240.64699999999996 890.29 240.88999999999996 890.198 241.07499999999996 890.0129999999999C241.44499999999996 889.6429999999999 241.44499999999996 889.045 241.07499999999996 888.6759999999999Z " fill="#ffffff" transform="matrix(1,0,0,1,-226,-874)"></path></svg>