<svg id="SvgjsSvg1029" xmlns="http://www.w3.org/2000/svg" version="1.1" xmlns:xlink="http://www.w3.org/1999/xlink" xmlns:svgjs="http://svgjs.com/svgjs" width="65" height="65"><defs id="SvgjsDefs1030"></defs><path id="SvgjsPath1031" d="M1180.75 918.217C1180.53 918.108 1180.21 917.8919999999999 1179.99 917.783C1178.1 916.822 1176.15 915.96 1174.14 915.191C1174.0300000000002 915.0400000000001 1173.88 914.917 1173.71 914.8580000000001C1171.22 913.9910000000001 1168.51 913.1250000000001 1165.8 912.475C1165.6299999999999 912.433 1165.45 912.44 1165.28 912.488C1163.95 912.177 1162.61 911.899 1161.26 911.6550000000001C1161.31 911.2490000000001 1161.35 910.8360000000001 1161.36 910.416L1161.36 907.553C1165.9299999999998 903.522 1168.75 897.008 1168.62 890.9159999999999L1168.62 885.555C1168.6899999999998 885.5029999999999 1168.76 885.448 1168.83 885.391C1170.24 884.1999999999999 1171 882.466 1171 880.733C1171 872.608 1164.39 866 1156.37 866L1146.7299999999998 866C1138.61 866 1131.9999999999998 872.608 1131.8899999999999 880.624C1131.8899999999999 882.466 1132.6499999999999 884.091 1134.06 885.283C1134.09 885.311 1134.1299999999999 885.336 1134.1699999999998 885.362L1134.1699999999998 890.9159999999999C1134.1699999999998 897.06 1137.09 903.6329999999999 1141.7499999999998 907.656L1141.7499999999998 910.4159999999999C1141.7499999999998 910.795 1141.7699999999998 911.1669999999999 1141.8099999999997 911.534C1135.0699999999997 912.744 1128.7399999999998 914.757 1123.0099999999998 917.675L1122.2499999999998 918.108C1120.1899999999998 919.083 1118.9999999999998 921.1419999999999 1118.9999999999998 923.4159999999999L1118.9999999999998 929.9159999999999C1118.9999999999998 930.5659999999999 1119.4299999999998 930.9999999999999 1120.0799999999997 930.9999999999999L1182.9199999999996 930.9999999999999C1183.5699999999997 930.9999999999999 1183.9999999999995 930.5659999999999 1183.9999999999995 930.0249999999999L1183.9999999999995 923.5249999999999C1183.9999999999995 921.3579999999998 1182.6999999999996 919.2999999999998 1180.7499999999995 918.2169999999999ZM1136.33 890.916L1136.33 886.475C1137.1999999999998 886.691 1138.1699999999998 886.8000000000001 1139.1499999999999 886.583C1143.1899999999998 885.828 1147.29 885.449 1151.4199999999998 885.446C1155.5399999999997 885.4490000000001 1159.6999999999998 885.828 1163.85 886.583C1164.1499999999999 886.6569999999999 1164.3899999999999 886.68 1164.62 886.688C1165.3 886.739 1166.02 886.637 1166.6699999999998 886.475L1166.6699999999998 890.916C1166.6699999999998 901.019 1159.2599999999998 908.7170000000001 1152.33 909.297C1152.25 909.303 1152.1699999999998 909.3100000000001 1152.1 909.3140000000001C1152.04 909.3170000000001 1151.99 909.32 1151.9299999999998 909.3220000000001C1151.7899999999997 909.3280000000001 1151.6399999999999 909.3330000000001 1151.4999999999998 909.3330000000001C1151.3599999999997 909.3330000000001 1151.2099999999998 909.3280000000001 1151.0699999999997 909.3220000000001C1151.0099999999998 909.3200000000002 1150.9599999999998 909.3170000000001 1150.9099999999996 909.3140000000001C1150.8199999999997 909.3090000000001 1150.7399999999996 909.3020000000001 1150.6499999999996 909.296C1149.2599999999995 909.177 1147.8399999999997 908.7700000000001 1146.4699999999996 908.1120000000001C1146.4599999999996 908.1070000000001 1146.4499999999996 908.1020000000001 1146.4399999999996 908.0960000000001C1146.4299999999996 908.0920000000001 1146.4199999999996 908.0870000000001 1146.4099999999996 908.0830000000001C1145.4299999999996 907.5920000000001 1144.4799999999996 906.96 1143.5899999999997 906.191C1143.4999999999998 906.128 1143.3799999999997 906.0740000000001 1143.2599999999998 906.0350000000001C1139.3099999999997 902.7640000000001 1136.3299999999997 897.3230000000001 1136.3299999999997 890.916ZM1146.62 868.166L1156.27 868.166C1162.91 868.166 1168.36 873.341 1168.8 879.8760000000001L1164.28 879.1080000000001C1155.73 877.591 1147.06 877.591 1138.72 879.1080000000001L1134.2 879.8760000000001C1134.64 873.3410000000001 1140.0800000000002 868.166 1146.6200000000001 868.166ZM1142.55 914.315C1142.57 914.3620000000001 1142.59 914.408 1142.62 914.455C1143.06 915.441 1143.6599999999999 916.337 1144.3899999999999 917.113C1144.4299999999998 917.1540000000001 1144.4699999999998 917.1940000000001 1144.5099999999998 917.234C1144.5599999999997 917.283 1144.5999999999997 917.331 1144.6499999999999 917.3770000000001C1144.7299999999998 917.46 1144.82 917.541 1144.9099999999999 917.6210000000001C1144.9199999999998 917.6300000000001 1144.9299999999998 917.6400000000001 1144.9399999999998 917.6500000000001C1146.4299999999998 919.0120000000001 1148.34 919.8910000000001 1150.4499999999998 920.1100000000001C1150.4899999999998 920.1140000000001 1150.5199999999998 920.1170000000001 1150.5599999999997 920.1200000000001C1150.6799999999996 920.1320000000001 1150.7999999999997 920.1410000000001 1150.9199999999996 920.1480000000001C1150.9599999999996 920.1500000000001 1150.9999999999995 920.1530000000001 1151.0399999999995 920.1550000000001C1151.1899999999996 920.162 1151.3399999999995 920.166 1151.4999999999995 920.166C1151.6599999999996 920.166 1151.8099999999995 920.162 1151.9599999999996 920.1550000000001C1151.9999999999995 920.1530000000001 1152.0399999999995 920.1500000000001 1152.0799999999995 920.1480000000001C1152.2099999999996 920.1410000000002 1152.3299999999995 920.1320000000002 1152.4499999999994 920.1200000000001C1152.4799999999993 920.1170000000001 1152.5099999999993 920.1150000000001 1152.5399999999993 920.1120000000001C1155.6299999999992 919.7950000000001 1158.3299999999992 918.075 1159.8699999999992 915.5010000000001C1159.8799999999992 915.4850000000001 1159.8899999999992 915.4700000000001 1159.8899999999992 915.4540000000001C1159.9099999999992 915.422 1159.9299999999992 915.389 1159.9499999999991 915.3560000000001C1160.269999999999 914.8250000000002 1160.539999999999 914.2630000000001 1160.749999999999 913.6740000000001C1161.819999999999 913.849 1162.869999999999 914.0530000000001 1163.9199999999992 914.2780000000001L1159.489999999999 922.3330000000001L1143.4499999999991 922.3330000000001L1139.029999999999 914.2890000000001C1140.109999999999 914.0560000000002 1141.1899999999991 913.8460000000001 1142.289999999999 913.666C1142.349999999999 913.835 1142.4199999999992 914 1142.489999999999 914.163C1142.509999999999 914.214 1142.529999999999 914.265 1142.549999999999 914.315ZM1132 927.75C1132 925.908 1133.41 924.5 1135.25 924.5L1167.75 924.5C1169.59 924.5 1171 925.908 1171 927.75L1171 928.833L1132 928.833ZM1167.42 883.658C1167.4 883.683 1167.3700000000001 883.706 1167.3400000000001 883.73C1167.2200000000003 883.758 1167.1000000000001 883.804 1166.9900000000002 883.875C1166.5200000000002 884.226 1166.0200000000002 884.45 1165.5100000000002 884.548C1165.1000000000001 884.611 1164.6800000000003 884.605 1164.2800000000002 884.525C1156.5100000000002 883.049 1148.65 882.914 1141.1100000000001 884.117C1140.2700000000002 884.2379999999999 1139.44 884.3739999999999 1138.6100000000001 884.525C1138.47 884.54 1138.3400000000001 884.547 1138.21 884.5509999999999C1137.3400000000001 884.535 1136.49 884.2929999999999 1135.79 883.766C1135.1399999999999 883.333 1134.71 882.683 1134.49 882.033L1139.15 881.166C1147.27 879.6500000000001 1155.6200000000001 879.6500000000001 1163.96 881.166L1168.58 882.0260000000001C1168.34 882.6390000000001 1167.9399999999998 883.2070000000001 1167.4199999999998 883.658ZM1173.17 928.833L1173.17 927.75C1173.17 925.105 1171.3500000000001 922.955 1168.88 922.447L1173.6200000000001 917.167C1175.48 917.879 1177.2800000000002 918.6650000000001 1179.0200000000002 919.5160000000001C1179.2300000000002 919.7330000000001 1179.5600000000002 919.8410000000001 1179.7700000000002 919.95C1181.0700000000002 920.7080000000001 1181.8300000000002 922.008 1181.8300000000002 923.416L1181.8300000000002 928.8330000000001ZM1121.17 923.416C1121.17 922.008 1121.92 920.7080000000001 1123.22 920.0580000000001L1123.98 919.6250000000001C1125.7 918.7480000000002 1127.49 917.9440000000001 1129.33 917.2210000000001L1134.04 922.4660000000001C1131.61 923.0030000000002 1129.83 925.1340000000001 1129.83 927.7500000000001L1129.83 928.8330000000001L1121.1699999999998 928.8330000000001ZM1150.98 911.489C1150.99 911.489 1151 911.49 1151.02 911.491C1151.18 911.496 1151.34 911.5 1151.5 911.5C1151.66 911.5 1151.82 911.496 1151.98 911.491C1152 911.49 1152.01 911.489 1152.02 911.489C1154.59 911.3910000000001 1156.97 910.577 1159.08 909.254L1159.08 910.416C1159.08 914.6410000000001 1155.72 917.999 1151.5 917.999C1147.27 917.999 1143.92 914.6410000000001 1143.92 910.416L1143.92 909.2570000000001C1146.03 910.5780000000001 1148.42 911.3910000000001 1150.98 911.489ZM1146.08 875.75L1156.9199999999998 875.75C1157.57 875.75 1157.9999999999998 875.316 1157.9999999999998 874.666L1157.9999999999998 870.3330000000001C1157.9999999999998 869.6830000000001 1157.5699999999997 869.2500000000001 1156.9199999999998 869.2500000000001L1146.08 869.2500000000001C1145.4299999999998 869.2500000000001 1145 869.6830000000001 1145 870.3330000000001L1145 874.666C1145 875.316 1145.43 875.75 1146.08 875.75ZM1166.23 922.333L1162.01 922.333L1166.2 914.813C1168.01 915.273 1169.79 915.803 1171.52 916.4ZM1131.58 916.386C1133.31 915.7819999999999 1135.08 915.251 1136.8999999999999 914.7909999999999L1140.9899999999998 922.333L1136.7699999999998 922.333ZM1147.17 871.416L1155.8300000000002 871.416L1155.8300000000002 873.5830000000001L1147.17 873.5830000000001ZM1139.58 925.583C1138.9299999999998 925.583 1138.5 926.016 1138.5 926.6659999999999C1138.5 927.3159999999999 1138.93 927.7489999999999 1139.58 927.7489999999999C1140.23 927.7489999999999 1140.6699999999998 927.3159999999999 1140.6699999999998 926.6659999999999C1140.6699999999998 926.016 1140.2299999999998 925.583 1139.58 925.583ZM1163.42 925.583C1162.77 925.583 1162.3300000000002 926.016 1162.3300000000002 926.6659999999999C1162.3300000000002 927.3159999999999 1162.7700000000002 927.7489999999999 1163.42 927.7489999999999C1164.0700000000002 927.7489999999999 1164.5 927.3159999999999 1164.5 926.6659999999999C1164.5 926.016 1164.07 925.583 1163.42 925.583Z " fill="#ffffff" transform="matrix(1,0,0,1,-1119,-866)"></path></svg>