<svg id="SvgjsSvg1042" xmlns="http://www.w3.org/2000/svg" version="1.1" xmlns:xlink="http://www.w3.org/1999/xlink" xmlns:svgjs="http://svgjs.com/svgjs" width="18" height="18"><defs id="SvgjsDefs1043"></defs><path id="SvgjsPath1044" d="M764.64 5139.34L756.818 5139.34C754.161 5139.34 752 5141.53 752 5144.22L752 5152.13C752 5154.81 754.161 5157 756.818 5157L764.64 5157C767.297 5157 769.458 5154.81 769.458 5152.13L769.458 5144.22C769.458 5141.530000000001 767.297 5139.34 764.64 5139.34ZM764.64 5155.43L756.818 5155.43C755.015 5155.43 753.549 5153.950000000001 753.549 5152.13L753.549 5144.22C753.549 5142.39 755.015 5140.91 756.818 5140.91L764.64 5140.91C766.442 5140.91 767.909 5142.389999999999 767.909 5144.22L767.909 5152.13C767.909 5153.95 766.442 5155.43 764.64 5155.43ZM760.729 5143.62C758.248 5143.62 756.23 5145.66 756.23 5148.17C756.23 5150.68 758.248 5152.72 760.729 5152.72C763.2090000000001 5152.72 765.2270000000001 5150.68 765.2270000000001 5148.17C765.2270000000001 5145.66 763.2090000000001 5143.62 760.729 5143.62ZM760.729 5151.15C759.1030000000001 5151.15 757.779 5149.82 757.779 5148.17C757.779 5146.53 759.102 5145.1900000000005 760.729 5145.1900000000005C762.355 5145.1900000000005 763.678 5146.530000000001 763.678 5148.17C763.678 5149.82 762.355 5151.15 760.729 5151.15ZM765.416 5142.29C765.1170000000001 5142.29 764.8240000000001 5142.42 764.614 5142.63C764.402 5142.84 764.2800000000001 5143.14 764.2800000000001 5143.4400000000005C764.2800000000001 5143.750000000001 764.402 5144.040000000001 764.614 5144.26C764.8240000000001 5144.47 765.1170000000001 5144.59 765.416 5144.59C765.715 5144.59 766.008 5144.47 766.219 5144.26C766.431 5144.04 766.552 5143.75 766.552 5143.4400000000005C766.552 5143.14 766.431 5142.84 766.219 5142.63C766.009 5142.42 765.715 5142.29 765.416 5142.29Z " fill="#000000" transform="matrix(1,0,0,1,-752,-5139)"></path></svg>