<svg id="SvgjsSvg1011" xmlns="http://www.w3.org/2000/svg" version="1.1" xmlns:xlink="http://www.w3.org/1999/xlink" xmlns:svgjs="http://svgjs.com/svgjs" width="16" height="18"><defs id="SvgjsDefs1012"></defs><path id="SvgjsPath1013" d="M864.415 9.71954L857.351 9.71954C854.952 9.71954 853 11.7661 853 14.2813L853 21.688C853 24.2035 854.952 26.2498 857.351 26.2498L864.415 26.2498C866.814 26.2498 868.766 24.203500000000002 868.766 21.688000000000002L868.766 14.281300000000002C868.766 11.766100000000002 866.814 9.719540000000002 864.415 9.719540000000002ZM864.415 24.7831L857.351 24.7831C855.723 24.7831 854.399 23.3946 854.399 21.688000000000002L854.399 14.281300000000002C854.399 12.574700000000002 855.723 11.186200000000001 857.351 11.186200000000001L864.415 11.186200000000001C866.043 11.186200000000001 867.367 12.574700000000002 867.367 14.281300000000002L867.367 21.688000000000002C867.367 23.394600000000004 866.043 24.7831 864.415 24.7831ZM860.883 13.7256C858.643 13.7256 856.82 15.6364 856.82 17.9848C856.82 20.3336 858.643 22.2441 860.883 22.2441C863.123 22.2441 864.945 20.3336 864.945 17.9848C864.945 15.6364 863.123 13.7256 860.883 13.7256ZM860.883 20.7774C859.414 20.7774 858.219 19.5246 858.219 17.9848C858.219 16.4447 859.4140000000001 15.1919 860.883 15.1919C862.3520000000001 15.1919 863.546 16.4447 863.546 17.9848C863.546 19.5246 862.3520000000001 20.7774 860.883 20.7774ZM865.116 12.4818C864.846 12.4818 864.581 12.5964 864.391 12.7967C864.1999999999999 12.9963 864.0899999999999 13.274 864.0899999999999 13.5573C864.0899999999999 13.8399 864.1999999999999 14.1176 864.391 14.3182C864.581 14.517499999999998 864.846 14.633099999999999 865.116 14.633099999999999C865.386 14.633099999999999 865.65 14.517499999999998 865.841 14.3182C866.032 14.1176 866.141 13.839899999999998 866.141 13.5573C866.141 13.274 866.0319999999999 12.9963 865.841 12.7967C865.651 12.5964 865.386 12.4818 865.116 12.4818Z " fill="#ffffff" transform="matrix(1,0,0,1,-853,-9)"></path></svg>