<svg id="SvgjsSvg1008" xmlns="http://www.w3.org/2000/svg" version="1.1" xmlns:xlink="http://www.w3.org/1999/xlink" xmlns:svgjs="http://svgjs.com/svgjs" width="20" height="21"><defs id="SvgjsDefs1009"></defs><path id="SvgjsPath1010" d="M509 9.99973C514.523 9.99973 519 14.4769 519 19.9998C519 25.5227 514.523 29.9998 509 29.9998C503.477 29.9998 499 25.5227 499 19.9998C499 14.4769 503.477 9.999730000000001 509 9.999730000000001ZM500 19.9998C500 24.9703 504.029 28.9999 509 28.9999C513.97 28.9999 518 24.9703 518 19.9998C518 15.0292 513.97 10.9999 509 10.9999C504.029 10.9999 500 15.0292 500 19.9998ZM509 20.9668L503.681 15.9999L514.319 15.9999ZM510.181 21.136L514.319 24.9998L503.681 24.9998L507.81899999999996 21.136L508.99999999999994 22.2391ZM510.862 20.4997L515 16.6359L515 24.363799999999998ZM507.137 20.4997L503 24.3638L503 16.6359Z " fill="#8ac540" transform="matrix(1,0,0,1,-499,-9)"></path></svg>