<svg id="SvgjsSvg1000" xmlns="http://www.w3.org/2000/svg" version="1.1" xmlns:xlink="http://www.w3.org/1999/xlink" xmlns:svgjs="http://svgjs.com/svgjs" width="19" height="20"><defs id="SvgjsDefs1001"></defs><path id="SvgjsPath1007" d="M210 20.4997C210 25.746100000000002 214.254 29.9998 219.5 29.9998C224.746 29.9998 229 25.7461 229 20.4997C229 15.2533 224.746 10.9999 219.5 10.9999C214.254 10.9999 210 15.2533 210 20.4997ZM219.5 12.1873C224.083 12.1873 227.812 15.9166 227.812 20.4997C227.812 25.082900000000002 224.083 28.8121 219.5 28.8121C214.917 28.8121 211.187 25.082900000000002 211.187 20.4997C211.187 15.9166 214.917 12.1873 219.5 12.1873C224.083 12.1873 219.5 12.1873 219.5 12.1873ZM224.517 24.8612L223.756 25.6218C223.62 25.7576 223.222 25.8425 223.21 25.8425C220.803 25.863300000000002 218.48600000000002 24.918000000000003 216.78400000000002 23.215700000000002C215.07700000000003 21.5073 214.13100000000003 19.182100000000002 214.156 16.768C214.156 16.7667 214.243 16.3805 214.37900000000002 16.246000000000002L215.14000000000001 15.485400000000002C215.418 15.205900000000002 215.95200000000003 15.079400000000001 216.32700000000003 15.204600000000003L216.48700000000002 15.257900000000003C216.86 15.383500000000003 217.25300000000001 15.796000000000003 217.35600000000002 16.1763L217.73800000000003 17.581000000000003C217.84200000000004 17.962200000000003 217.70200000000003 18.504900000000003 217.42400000000004 18.783200000000004L216.91600000000003 19.291500000000003C217.41500000000002 21.137600000000003 218.86300000000003 22.585900000000002 220.70900000000003 23.085600000000003L221.21700000000004 22.577900000000003C221.49700000000004 22.298300000000005 222.04000000000005 22.159100000000002 222.42000000000004 22.262400000000003L223.82400000000004 22.646100000000004C224.20500000000004 22.750500000000002 224.61800000000005 23.140100000000004 224.74300000000005 23.513900000000003L224.79600000000005 23.676000000000002C224.92000000000004 24.049500000000002 224.79500000000004 24.583800000000004 224.51700000000005 24.861200000000004Z " fill="#8ac540" transform="matrix(1,0,0,1,-210,-10)"></path></svg>