<svg id="SvgjsSvg1012" xmlns="http://www.w3.org/2000/svg" version="1.1" xmlns:xlink="http://www.w3.org/1999/xlink" xmlns:svgjs="http://svgjs.com/svgjs" width="15" height="15"><defs id="SvgjsDefs1013"></defs><path id="SvgjsPath1014" d="M277.5 1317C281.642 1317 285 1320.36 285 1324.5C285 1328.64 281.642 1332 277.5 1332C273.358 1332 270 1328.64 270 1324.5C270 1320.36 273.358 1317 277.5 1317ZM270.789 1324.5C270.789 1328.21 273.794 1331.21 277.5 1331.21C281.206 1331.21 284.21 1328.21 284.21 1324.5C284.21 1320.79 281.20599999999996 1317.79 277.5 1317.79C273.794 1317.79 270.789 1320.79 270.789 1324.5Z " fill="#8ac540" transform="matrix(1,0,0,1,-270,-1317)"></path><path id="SvgjsPath1015" d="M277.08 1324.1L274.563 1324.1C274.33099999999996 1324.1 274.143 1324.29 274.143 1324.52C274.143 1324.75 274.33099999999996 1324.94 274.563 1324.94L277.08 1324.94L277.08 1327.46C277.08 1327.69 277.268 1327.88 277.5 1327.88C277.732 1327.88 277.92 1327.69 277.92 1327.46L277.92 1324.94L280.437 1324.94C280.66900000000004 1324.94 280.857 1324.75 280.857 1324.52C280.857 1324.29 280.66900000000004 1324.1 280.437 1324.1L277.92 1324.1L277.91900000000004 1321.58C277.91900000000004 1321.35 277.732 1321.1599999999999 277.50000000000006 1321.1599999999999C277.26800000000003 1321.1599999999999 277.08000000000004 1321.35 277.08000000000004 1321.58Z " fill="#8ac540" transform="matrix(1,0,0,1,-270,-1317)"></path></svg>