<svg id="SvgjsSvg1000" xmlns="http://www.w3.org/2000/svg" version="1.1" xmlns:xlink="http://www.w3.org/1999/xlink" xmlns:svgjs="http://svgjs.com/svgjs" width="23" height="24"><defs id="SvgjsDefs1001"></defs><path id="SvgjsPath1007" d="M966.965 793.363L970.4870000000001 789.836L971.171 790.521L967.649 794.048ZM968.466 794.862L971.987 791.3349999999999L972.6709999999999 792.0199999999999L969.1489999999999 795.5469999999999ZM969.963 796.365L973.4839999999999 792.838L974.1679999999999 793.5219999999999L970.6459999999998 797.05ZM971.466 797.867L974.987 794.3399999999999L975.6709999999999 795.0249999999999L972.15 798.5519999999999ZM973.649 800.056L972.965 799.3720000000001L976.486 795.845L977.17 796.529ZM985.042 786.917C984.342 787.6170000000001 983.404 788.167 982.432 788.595L982.573 794.086L973.674 803L964 793.31L972.951 784.3919999999999L978.3720000000001 784.5329999999999C978.8370000000001 783.4369999999999 979.4280000000001 782.5539999999999 980.057 781.9239999999999C983.155 778.8249999999998 985.2810000000001 780.2259999999999 986.009 780.9549999999998C986.783 781.7309999999998 988.186 783.8139999999999 985.042 786.9169999999998ZM981.606 793.696L981.465 788.985C980.921 789.183 980.3810000000001 789.343 979.888 789.469C979.836 789.9390000000001 979.639 790.3960000000001 979.287 790.748C978.851 791.2320000000001 978.269 791.4250000000001 977.738 791.4250000000001C977.1560000000001 791.4250000000001 976.6260000000001 791.181 976.1890000000001 790.7950000000001C975.8050000000001 790.4050000000001 975.5600000000001 789.8270000000001 975.5600000000001 789.244C975.5600000000001 788.6610000000001 975.8050000000001 788.13 976.1890000000001 787.692C976.5790000000001 787.307 977.1560000000001 787.062 977.738 787.062C978.32 787.062 978.8510000000001 787.307 979.287 787.692C979.527 787.937 979.7 788.2330000000001 979.799 788.548C980.3149999999999 788.407 980.8779999999999 788.228 981.437 788.0120000000001L981.367 785.61L973.289 785.365L965.356 793.3100000000001L973.674 801.6410000000001ZM984.314 786.287C986.102 784.495 986.4399999999999 782.845 985.281 781.6840000000001C984.122 780.5230000000001 982.4739999999999 780.8610000000001 980.6859999999999 782.6530000000001C980.2209999999999 783.1180000000002 979.79 783.7710000000002 979.4089999999999 784.5610000000001L982.3329999999999 784.6360000000002L982.4089999999999 787.5840000000002C983.1269999999998 787.2320000000002 983.7979999999999 786.8040000000002 984.3139999999999 786.2870000000001ZM977.4 789.046C977.419 789.046 978.02 788.966 978.884 788.774C978.823 788.628 978.7330000000001 788.492 978.611 788.369C978.3199999999999 788.176 978.029 788.078 977.7379999999999 788.078C977.4 788.078 977.1089999999999 788.2239999999999 976.9169999999999 788.4159999999999C976.7249999999999 788.6089999999999 976.579 788.948 976.579 789.2389999999999C976.579 789.5769999999999 976.7249999999999 789.8689999999999 976.9169999999999 790.0619999999999C977.353 790.4989999999999 978.175 790.4989999999999 978.6109999999999 790.0619999999999C978.7189999999998 789.9489999999998 978.8039999999999 789.8269999999999 978.8649999999999 789.6999999999999C978.1279999999999 789.8549999999999 977.6209999999999 789.9159999999999 977.5459999999999 789.9159999999999C977.3629999999999 789.968 977.039 789.925 976.9639999999999 789.5769999999999C976.9119999999999 789.3379999999999 977.1089999999999 789.0929999999998 977.4 789.0459999999999Z " fill="#8ac540" transform="matrix(1,0,0,1,-964,-779)"></path></svg>