<svg id="SvgjsSvg1017" xmlns="http://www.w3.org/2000/svg" version="1.1" xmlns:xlink="http://www.w3.org/1999/xlink" xmlns:svgjs="http://svgjs.com/svgjs" width="13" height="14"><defs id="SvgjsDefs1018"></defs><path id="SvgjsPath1019" d="M1374.8 25.8404L1371.59 22.622799999999998C1372.4199999999998 21.6772 1372.87 20.487299999999998 1372.87 19.2485C1372.87 16.3545 1370.4299999999998 13.9999 1367.4299999999998 13.9999C1364.4399999999998 13.9999 1361.9999999999998 16.3545 1361.9999999999998 19.2485C1361.9999999999998 22.1427 1364.4399999999998 24.4971 1367.4299999999998 24.4971C1368.56 24.4971 1369.6299999999999 24.1694 1370.5499999999997 23.5474L1373.7799999999997 26.7897C1373.9099999999999 26.9248 1374.0899999999997 26.9995 1374.2899999999997 26.9995C1374.4699999999998 26.9995 1374.6399999999996 26.932000000000002 1374.7799999999997 26.808600000000002C1375.0599999999997 26.547 1375.0699999999997 26.112800000000004 1374.7999999999997 25.840400000000002ZM1367.43 15.3692C1369.65 15.3692 1371.45 17.109199999999998 1371.45 19.2485C1371.45 21.3877 1369.65 23.128 1367.43 23.128C1365.22 23.128 1363.42 21.3877 1363.42 19.2485C1363.42 17.1092 1365.22 15.3692 1367.43 15.3692Z " fill="#ffffff" transform="matrix(1,0,0,1,-1362,-13)"></path></svg>