<svg id="SvgjsSvg1014" xmlns="http://www.w3.org/2000/svg" version="1.1" xmlns:xlink="http://www.w3.org/1999/xlink" xmlns:svgjs="http://svgjs.com/svgjs" width="15" height="19"><defs id="SvgjsDefs1015"></defs><path id="SvgjsPath1016" d="M912.448 18.9419L912.448 24.029C912.448 25.249299999999998 911.394 26.2476 910.105 26.2476L900.4680000000001 26.2476C899.1790000000001 26.2476 898.1250000000001 25.249299999999998 898.1250000000001 24.029L898.1250000000001 18.9419C898.1250000000001 17.721700000000002 899.1790000000001 16.723300000000002 900.4680000000001 16.723300000000002L910.105 16.723300000000002C911.394 16.723300000000002 912.448 17.721700000000002 912.448 18.9419ZM901.111 24.5814L901.11 19.2227L902.3050000000001 19.223L902.3050000000001 18.429299999999998L899.1210000000001 18.4243L899.1210000000001 19.205099999999998L900.1150000000001 19.2079L900.1150000000001 24.5814ZM907.878 23.2979L907.8760000000001 20.9163C907.8750000000001 20.008399999999998 907.1990000000001 19.4648 906.2800000000001 20.1994L906.2840000000001 18.4287L905.2890000000001 18.4302L905.2840000000001 24.5417L906.1020000000001 24.5296L906.1770000000001 24.148999999999997C907.2230000000002 25.1117 907.8800000000001 24.452099999999998 907.8780000000002 23.2979ZM903.913 11.5312C903.989 11.2761 904.124 11.0709 904.321 10.9162C904.517 10.7606 904.768 10.6828 905.0740000000001 10.6828C905.331 10.6828 905.551 10.7337 905.735 10.8325C905.919 10.9324 906.062 11.0616 906.1610000000001 11.2212C906.2610000000001 11.381499999999999 906.33 11.546 906.3660000000001 11.714599999999999C906.4030000000001 11.885399999999999 906.4220000000001 12.142999999999999 906.4220000000001 12.4904L906.4220000000001 13.6884C906.4220000000001 14.1279 906.4040000000001 14.4511 906.3700000000001 14.6566C906.3360000000001 14.8624 906.2640000000001 15.053099999999999 906.1510000000001 15.232199999999999C906.0400000000001 15.409199999999998 905.897 15.5415 905.724 15.626499999999998C905.5490000000001 15.711699999999999 905.3480000000001 15.753199999999998 905.1220000000001 15.753199999999998C904.869 15.753199999999998 904.6550000000001 15.718199999999998 904.48 15.645099999999998C904.303 15.572199999999997 904.167 15.462499999999997 904.07 15.316499999999998C903.9720000000001 15.170499999999997 903.903 14.992599999999998 903.8620000000001 14.785299999999998C903.82 14.578199999999997 903.8000000000001 14.266399999999997 903.8000000000001 13.851399999999998L903.8000000000001 12.597099999999998C903.8000000000001 12.142099999999997 903.8380000000001 11.787199999999997 903.9130000000001 11.531199999999998ZM910.995 22.982L910.248 22.9861C910.248 23.0158 910.2470000000001 23.0502 910.2460000000001 23.0874L910.2460000000001 23.505499999999998C910.2460000000001 23.7293 910.0620000000001 23.911599999999996 909.8380000000001 23.911599999999996L909.6920000000001 23.911599999999996C909.4680000000001 23.911599999999996 909.2840000000001 23.729299999999995 909.2840000000001 23.505499999999998L909.2840000000001 22.4059L910.9940000000001 22.4059L910.9940000000001 21.7599C910.9940000000001 21.287899999999997 910.9820000000002 20.8162 910.9430000000001 20.546499999999998C910.8210000000001 19.6926 909.6270000000001 19.557199999999998 909.0230000000001 19.9942C908.8340000000002 20.130599999999998 908.6900000000002 20.313399999999998 908.6050000000001 20.5586C908.5210000000002 20.804399999999998 908.4780000000002 21.139699999999998 908.4780000000002 21.5656L908.4780000000002 22.9858C908.4790000000002 25.3463 911.3360000000001 25.012500000000003 910.9950000000002 22.982000000000003ZM907.069 14.8779C907.057 14.7403 907.05 14.4688 907.05 14.0619L907.05 10.866299999999999L907.962 10.866299999999999L907.962 14.5537C907.962 14.7533 908.126 14.916699999999999 908.326 14.916699999999999C908.5260000000001 14.916699999999999 908.69 14.7533 908.69 14.5537L908.69 10.866299999999999L909.5640000000001 10.866299999999999L909.5640000000001 15.604099999999999L908.4540000000001 15.604099999999999L908.4720000000001 15.211699999999999C908.397 15.3714 908.3030000000001 15.490699999999999 908.1930000000001 15.5704C908.0820000000001 15.6509 907.955 15.6897 907.8110000000001 15.6897C907.6480000000001 15.6897 907.5110000000002 15.6519 907.4040000000001 15.5762C907.2960000000002 15.4997 907.2160000000001 15.398 907.1640000000001 15.2725C907.113 15.145700000000001 907.0820000000001 15.0143 907.0690000000001 14.8779ZM903.696 20.0212L903.696 22.8822C903.696 23.296300000000002 903.721 23.5034 903.695 23.5762C903.614 23.7981 903.25 24.034 903.1080000000001 23.6004C903.0840000000001 23.5245 903.105 23.2954 903.104 22.9021L903.1 20.0212L902.11 20.0212L902.113 22.8568C902.114 23.2914 902.1030000000001 23.6156 902.1160000000001 23.7631C902.1410000000001 24.023200000000003 902.1320000000001 24.3263 902.373 24.4995C902.821 24.8234 903.6790000000001 24.4512 903.894 23.988100000000003L903.893 24.579200000000004L904.692 24.580100000000005L904.692 20.021200000000004ZM904.67 14.4787C904.67 14.7471 904.8689999999999 14.9663 905.111 14.9663C905.354 14.9663 905.552 14.7471 905.552 14.4787L905.552 11.957C905.552 11.6889 905.354 11.469800000000001 905.111 11.469800000000001C904.869 11.469800000000001 904.67 11.6889 904.67 11.957ZM907.139 20.7966L907.139 23.4708C907.139 23.668 906.943 23.8288 906.702 23.8288C906.463 23.8288 906.267 23.668000000000003 906.267 23.4708L906.267 20.7966C906.267 20.599200000000003 906.4630000000001 20.437700000000003 906.702 20.437700000000003C906.943 20.437700000000003 907.139 20.599200000000003 907.139 20.7966ZM910.241 21.6161L909.297 21.6161L909.302 21.0663C909.302 20.8217 909.5020000000001 20.621799999999997 909.746 20.621799999999997L909.8059999999999 20.621799999999997C910.0509999999999 20.621799999999997 910.252 20.821699999999996 910.252 21.0663ZM901.597 15.7523L902.645 15.7523L902.646 12.1188L903.8829999999999 9.00605L902.7379999999999 9.00605L902.0799999999999 11.318200000000001L901.4119999999999 8.99985L900.2789999999999 8.99985L901.5949999999999 12.1204Z " fill="#ffffff" transform="matrix(1,0,0,1,-898,-8)"></path></svg>