<svg id="SvgjsSvg1045" xmlns="http://www.w3.org/2000/svg" version="1.1" xmlns:xlink="http://www.w3.org/1999/xlink" xmlns:svgjs="http://svgjs.com/svgjs" width="16" height="18"><defs id="SvgjsDefs1046"></defs><path id="SvgjsPath1047" d="M809.002 5149.34L809.002 5154.63C809.002 5155.900000000001 807.9209999999999 5156.9400000000005 806.5999999999999 5156.9400000000005L796.7189999999999 5156.9400000000005C795.3969999999999 5156.9400000000005 794.3159999999999 5155.900000000001 794.3159999999999 5154.63L794.3159999999999 5149.34C794.3159999999999 5148.07 795.3969999999999 5147.03 796.7189999999999 5147.03L806.5999999999999 5147.03C807.9209999999999 5147.03 809.002 5148.07 809.002 5149.34ZM797.378 5155.2L797.3770000000001 5149.63L798.6020000000001 5149.63L798.6020000000001 5148.8L795.3370000000001 5148.8L795.3370000000001 5149.610000000001L796.3560000000001 5149.610000000001L796.3560000000001 5155.200000000001ZM804.317 5153.87L804.314 5151.39C804.313 5150.450000000001 803.62 5149.88 802.678 5150.650000000001L802.682 5148.8L801.662 5148.81L801.657 5155.160000000001L802.4960000000001 5155.150000000001L802.5720000000001 5154.750000000001C803.6440000000001 5155.750000000001 804.3180000000001 5155.070000000001 804.3170000000001 5153.870000000001ZM800.251 5141.63C800.328 5141.37 800.467 5141.150000000001 800.669 5140.99C800.87 5140.83 801.1279999999999 5140.75 801.441 5140.75C801.7040000000001 5140.75 801.9300000000001 5140.8 802.118 5140.91C802.3080000000001 5141.01 802.4540000000001 5141.139999999999 802.5550000000001 5141.3099999999995C802.6590000000001 5141.48 802.7280000000001 5141.65 802.7660000000001 5141.82C802.8040000000001 5142 802.8230000000001 5142.2699999999995 802.8230000000001 5142.63L802.8230000000001 5143.88C802.8230000000001 5144.33 802.8050000000001 5144.67 802.7700000000001 5144.88C802.7350000000001 5145.1 802.6610000000001 5145.29 802.546 5145.4800000000005C802.432 5145.660000000001 802.2850000000001 5145.8 802.1080000000001 5145.89C801.9280000000001 5145.9800000000005 801.7220000000001 5146.02 801.49 5146.02C801.23 5146.02 801.0120000000001 5145.990000000001 800.832 5145.910000000001C800.651 5145.830000000001 800.511 5145.720000000001 800.412 5145.570000000001C800.312 5145.420000000001 800.241 5145.2300000000005 800.198 5145.02C800.155 5144.8 800.135 5144.4800000000005 800.135 5144.040000000001L800.135 5142.740000000001C800.135 5142.27 800.174 5141.900000000001 800.251 5141.630000000001ZM807.512 5153.54L806.747 5153.54C806.746 5153.57 806.745 5153.61 806.745 5153.65L806.745 5154.08C806.745 5154.32 806.556 5154.51 806.326 5154.51L806.176 5154.51C805.947 5154.51 805.758 5154.320000000001 805.758 5154.08L805.758 5152.94L807.5110000000001 5152.94L807.5110000000001 5152.2699999999995C807.5110000000001 5151.78 807.4990000000001 5151.29 807.4590000000001 5151.009999999999C807.3330000000001 5150.119999999999 806.109 5149.98 805.4910000000001 5150.429999999999C805.2970000000001 5150.57 805.1480000000001 5150.759999999999 805.0620000000001 5151.0199999999995C804.9750000000001 5151.2699999999995 804.9320000000001 5151.62 804.9320000000001 5152.07L804.9320000000001 5153.54C804.9320000000001 5156 807.8620000000001 5155.65 807.5120000000002 5153.54ZM803.487 5145.11C803.475 5144.969999999999 803.467 5144.69 803.467 5144.259999999999L803.467 5140.94L804.4019999999999 5140.94L804.4019999999999 5144.78C804.4019999999999 5144.98 804.5709999999999 5145.15 804.775 5145.15C804.981 5145.15 805.149 5144.98 805.149 5144.78L805.149 5140.94L806.045 5140.94L806.045 5145.87L804.906 5145.87L804.9259999999999 5145.46C804.848 5145.63 804.7529999999999 5145.75 804.6389999999999 5145.83C804.5259999999998 5145.92 804.3949999999999 5145.96 804.2479999999999 5145.96C804.0799999999999 5145.96 803.9399999999999 5145.92 803.8299999999999 5145.84C803.7189999999999 5145.76 803.637 5145.650000000001 803.5849999999999 5145.52C803.5319999999999 5145.39 803.4999999999999 5145.25 803.487 5145.110000000001ZM800.028 5150.46L800.028 5153.44C800.028 5153.87 800.054 5154.08 800.027 5154.16C799.9440000000001 5154.389999999999 799.57 5154.63 799.4250000000001 5154.18C799.4000000000001 5154.1 799.422 5153.87 799.422 5153.46L799.418 5150.46L798.402 5150.46L798.4050000000001 5153.41C798.4060000000001 5153.86 798.3950000000001 5154.2 798.4090000000001 5154.349999999999C798.4330000000001 5154.62 798.4250000000001 5154.94 798.671 5155.12C799.1310000000001 5155.45 800.0110000000001 5155.07 800.2320000000001 5154.59L800.2300000000001 5155.2L801.0500000000002 5155.2L801.0500000000002 5150.46ZM801.027 5144.7C801.027 5144.98 801.231 5145.2 801.479 5145.2C801.7280000000001 5145.2 801.931 5144.98 801.931 5144.7L801.931 5142.07C801.931 5141.799999999999 801.7280000000001 5141.57 801.479 5141.57C801.231 5141.57 801.027 5141.799999999999 801.027 5142.07ZM803.558 5151.27L803.558 5154.05C803.558 5154.25 803.357 5154.42 803.111 5154.42C802.865 5154.42 802.665 5154.25 802.665 5154.05L802.665 5151.27C802.665 5151.06 802.865 5150.89 803.111 5150.89C803.357 5150.89 803.558 5151.06 803.558 5151.27ZM806.739 5152.12L805.7710000000001 5152.12L805.7760000000001 5151.55C805.7760000000001 5151.29 805.9810000000001 5151.09 806.2310000000001 5151.09L806.2930000000001 5151.09C806.5440000000001 5151.09 806.7500000000001 5151.29 806.7500000000001 5151.55ZM797.876 5146.02L798.9499999999999 5146.02L798.9509999999999 5142.240000000001L800.2199999999999 5139.010000000001L799.0459999999999 5139.010000000001L798.371 5141.410000000001L797.687 5139.000000000001L796.524 5139.000000000001L797.874 5142.250000000001Z " fill="#000000" transform="matrix(1,0,0,1,-794,-5139)"></path></svg>